<?xml version="1.0" encoding="UTF-8"?>
<svg xmlns="http://www.w3.org/2000/svg" xmlns:xlink="http://www.w3.org/1999/xlink" viewBox="0 0 480 480" width="480px" height="480px">
<g id="surface198019430">
<path style=" stroke:none;fill-rule:nonzero;fill:rgb(2.352941%,60.784316%,100%);fill-opacity:1;" d="M 240 75 C 148.875 75 75 148.875 75 240 C 75 270.488281 83.304688 299.023438 97.734375 323.523438 L 76.609375 402.628906 L 159.578125 384.066406 C 183.378906 397.378906 210.796875 405 240 405 C 331.125 405 405 331.125 405 240 C 405 148.875 331.125 75 240 75 Z M 240 105 C 314.558594 105 375 165.441406 375 240 C 375 314.558594 314.558594 375 240 375 C 212.015625 375 186.027344 366.488281 164.472656 351.914062 L 118.433594 362.210938 L 130.152344 318.296875 C 114.378906 296.199219 105 269.21875 105 240 C 105 165.441406 165.441406 105 240 105 Z M 183.542969 163.023438 C 180.792969 163.023438 176.367188 164.039062 172.601562 168.132812 C 168.90625 172.238281 158.347656 182.089844 158.347656 202.238281 C 158.347656 222.304688 172.929688 241.777344 174.976562 244.453125 C 177.023438 247.207031 203.253906 289.792969 244.832031 306.167969 C 279.304688 319.742188 286.347656 317.050781 293.890625 316.347656 C 301.375 315.703125 318.0625 306.5 321.460938 296.96875 C 324.851562 287.429688 324.847656 279.246094 323.789062 277.53125 C 322.761719 275.863281 320.078125 274.832031 315.980469 272.785156 C 311.886719 270.726562 291.796875 260.832031 288.03125 259.484375 C 284.320312 258.132812 281.570312 257.421875 278.890625 261.519531 C 276.140625 265.613281 268.335938 274.828125 265.898438 277.515625 C 263.535156 280.265625 261.175781 280.585938 257.078125 278.539062 C 252.984375 276.492188 239.816406 272.195312 224.207031 258.253906 C 212.066406 247.445312 203.867188 234.058594 201.503906 229.980469 C 199.132812 225.894531 201.242188 223.664062 203.292969 221.617188 C 205.152344 219.832031 207.394531 216.875 209.445312 214.511719 C 211.421875 212.082031 212.121094 210.421875 213.472656 207.671875 C 214.890625 204.992188 214.167969 202.554688 213.148438 200.507812 C 212.136719 198.453125 204.195312 178.242188 200.550781 170.1875 C 197.492188 163.40625 194.292969 163.207031 191.351562 163.140625 C 188.976562 163.019531 186.222656 163.023438 183.542969 163.023438 Z M 183.542969 163.023438 "/>
</g>
</svg>
